{
	"asset":{
		"version":"2.0",
		"generator":"Created using the official Cinema 4D glTF Exporter 1.000x284978"
	},
	"scenes":[{
		"nodes":[0]
	}],
	"nodes":[{
		"name":"Cube",
		"translation":[0.0,
		0.0,
		0.0],
		"rotation":[0.0,
		0.0,
		0.0,
		-1.0],
		"mesh":0,
		"scale":[1.0,
		1.0,
		1.0]
	}],
	"meshes":[{
		"name":"Cube",
		"primitives":[{
			"attributes":{
				"POSITION":1
			},
			"indices":0
		}]
	}],
	"accessors":[{
		"count":36,
		"bufferView":0,
		"type":"SCALAR",
		"componentType":5123,
		"byteOffset":0,
		"min":[0],
		"max":[7]
	},
	{
		"count":8,
		"bufferView":1,
		"type":"VEC3",
		"componentType":5126,
		"byteOffset":0,
		"min":[-100.0,
		-100.0,
		-100.0],
		"max":[100.0,
		100.0,
		100.0]
	}],
	"bufferViews":[{
		"buffer":0,
		"byteOffset":0,
		"byteLength":72,
		"target":34963
	},
	{
		"buffer":0,
		"byteOffset":72,
		"byteLength":96,
		"target":34962
	}],
	"buffers":[{
		"uri":"data:application/octet-stream;base64,",
		"byteLength":168
	}]
}