{
	"asset":{
		"version":"2.0",
		"generator":"Created using the official Cinema 4D glTF Exporter 1.000x284978"
	},
	"scenes":[{
		"nodes":[0,
		2]
	}],
	"nodes":[{
		"name":"Atom_Array",
		"translation":[-728.9080200195313,
		-179.3755645751953,
		-2.8159384727478029],
		"rotation":[0.0,
		0.0,
		0.0,
		-1.0],
		"scale":[1.0,
		1.0,
		1.0],
		"children":[1]
	},
	{
		"name":"Sphere_1",
		"mesh":0
	},
	{
		"name":"polygons",
		"translation":[728.9080200195313,
		179.3755645751953,
		2.8159384727478029],
		"rotation":[0.0,
		0.0,
		0.0,
		-1.0],
		"scale":[1.0,
		1.0,
		1.0],
		"children":[3]
	},
	{
		"name":"Atom Array",
		"translation":[-728.9080200195313,
		-179.3755645751953,
		-2.8159384727478029],
		"rotation":[0.0,
		0.0,
		0.0,
		-1.0],
		"scale":[1.0,
		1.0,
		1.0],
		"children":[4]
	},
	{
		"name":"Sphere",
		"mesh":1
	}],
	"meshes":[{
		"name":"Sphere_1",
		"primitives":[{
			"attributes":{
				"POSITION":1
			},
			"indices":0,
			"material":0
		}]
	},
	{
		"name":"Sphere",
		"primitives":[{
			"attributes":{
				"POSITION":3
			},
			"indices":2,
			"material":0
		}]
	}],
	"accessors":[{
		"count":3168,
		"bufferView":0,
		"type":"SCALAR",
		"componentType":5123,
		"byteOffset":0,
		"min":[0],
		"max":[791]
	},
	{
		"count":792,
		"bufferView":1,
		"type":"VEC3",
		"componentType":5126,
		"byteOffset":0,
		"min":[647.408203125,
		60.87678146362305,
		-101.64031982421875],
		"max":[808.322998046875,
		273.8408203125,
		144.69610595703126]
	},
	{
		"count":3168,
		"bufferView":2,
		"type":"SCALAR",
		"componentType":5123,
		"byteOffset":0,
		"min":[0],
		"max":[791]
	},
	{
		"count":792,
		"bufferView":3,
		"type":"VEC3",
		"componentType":5126,
		"byteOffset":0,
		"min":[647.408203125,
		60.87678146362305,
		-101.64031982421875],
		"max":[808.322998046875,
		273.8408203125,
		144.69610595703126]
	}],
	"bufferViews":[{
		"buffer":0,
		"byteOffset":0,
		"byteLength":6336,
		"target":34963
	},
	{
		"buffer":0,
		"byteOffset":6336,
		"byteLength":9504,
		"target":34962
	},
	{
		"buffer":1,
		"byteOffset":0,
		"byteLength":6336,
		"target":34963
	},
	{
		"buffer":1,
		"byteOffset":6336,
		"byteLength":9504,
		"target":34962
	}],
	"buffers":[{
		"uri":"data:application/octet-stream;base64,",
		"byteLength":15840
	},
	{
		"uri":"data:application/octet-stream;base64,",
		"byteLength":15840
	}],
	"materials":[{
		"pbrMetallicRoughness":{
			"baseColorFactor":[0.03,
			0.03,
			0.03,
			1.0],
			"metallicFactor":1.0,
			"roughnessFactor":0.1
		},
		"emissiveFactor":[0.0,
		0.0,
		0.0],
		"alphaMode":"OPAQUE",
		"doubleSided":false,
		"name":"Mat.4"
	}]
}