{
	"asset":{
		"version":"2.0",
		"generator":"Created using the official Cinema 4D glTF Exporter 1.000x284978"
	},
	"scenes":[{
		"nodes":[0]
	}],
	"nodes":[{
		"name":"polygons",
		"translation":[728.9080200195313,
		179.3755645751953,
		-2.8159384727478029],
		"rotation":[0.0,
		0.0,
		0.0,
		-1.0],
		"scale":[1.0,
		1.0,
		1.0],
		"children":[1]
	},
	{
		"name":"Atom Array",
		"translation":[-661.1836547851563,
		-60.28572463989258,
		2.8159384727478029],
		"rotation":[0.0,
		0.0,
		0.0,
		-1.0],
		"scale":[1.0,
		1.0,
		1.0],
		"children":[2]
	},
	{
		"name":"Sphere",
		"mesh":0
	}],
	"meshes":[{
		"name":"Sphere",
		"primitives":[{
			"attributes":{
				"POSITION":1
			},
			"indices":0
		}]
	}],
	"accessors":[{
		"count":3168,
		"bufferView":0,
		"type":"SCALAR",
		"componentType":5123,
		"byteOffset":0,
		"min":[0],
		"max":[791]
	},
	{
		"count":792,
		"bufferView":1,
		"type":"VEC3",
		"componentType":5126,
		"byteOffset":0,
		"min":[-111.68585968017578,
		-35.13767623901367,
		-119.60645294189453],
		"max":[114.3309326171875,
		145.46865844726563,
		94.12297058105469]
	}],
	"bufferViews":[{
		"buffer":0,
		"byteOffset":0,
		"byteLength":6336,
		"target":34963
	},
	{
		"buffer":0,
		"byteOffset":6336,
		"byteLength":9504,
		"target":34962
	}],
	"buffers":[{
		"uri":"data:application/octet-stream;base64,",
		"byteLength":15840
	}]
}