{
	"asset":{
		"version":"2.0",
		"generator":"Created using the official Cinema 4D glTF Exporter 1.000x284978"
	},
	"scenes":[{
		"nodes":[0]
	}],
	"nodes":[{
		"name":"Atom_Array",
		"translation":[1248.738525390625,
		1744.607177734375,
		0.0],
		"rotation":[0.0,
		0.0,
		0.0,
		-1.0],
		"scale":[1.0,
		1.0,
		1.0],
		"children":[1]
	},
	{
		"name":"Sphere_1",
		"translation":[-8033.5283203125,
		-1744.607177734375,
		0.0],
		"rotation":[0.0,
		0.0,
		0.0,
		-1.0],
		"mesh":0,
		"scale":[1.0,
		1.0,
		1.0]
	}],
	"meshes":[{
		"name":"Sphere_1",
		"primitives":[{
			"attributes":{
				"POSITION":1
			},
			"indices":0
		}]
	}],
	"accessors":[{
		"count":3168,
		"bufferView":0,
		"type":"SCALAR",
		"componentType":5123,
		"byteOffset":0,
		"min":[0],
		"max":[791]
	},
	{
		"count":792,
		"bufferView":1,
		"type":"VEC3",
		"componentType":5126,
		"byteOffset":0,
		"min":[6884.73974609375,
		879.6729736328125,
		-1436.4683837890626],
		"max":[9331.0458984375,
		2739.90234375,
		1001.5977783203125]
	}],
	"bufferViews":[{
		"buffer":0,
		"byteOffset":0,
		"byteLength":6336,
		"target":34963
	},
	{
		"buffer":0,
		"byteOffset":6336,
		"byteLength":9504,
		"target":34962
	}],
	"buffers":[{
		"uri":"data:application/octet-stream;base64,",
		"byteLength":15840
	}]
}